<mxfile host="app.diagrams.net" agent="Mozilla/5.0 (X11; Linux x86_64) AppleWebKit/537.36 (KHTML, like Gecko) Chrome/130.0.0.0 Safari/537.36" version="24.8.3">
  <diagram name="Page-1" id="XsevYb4aw3tUx_r36r34">
    <mxGraphModel dx="1554" dy="438" grid="1" gridSize="10" guides="1" tooltips="1" connect="1" arrows="1" fold="1" page="1" pageScale="1" pageWidth="827" pageHeight="1169" math="0" shadow="0">
      <root>
        <mxCell id="0" />
        <mxCell id="1" parent="0" />
        <mxCell id="83mKQvmwDJsQdVqa1Sk4-1" value="CUENTA" style="whiteSpace=wrap;html=1;align=center;" vertex="1" parent="1">
          <mxGeometry x="245" y="150" width="100" height="40" as="geometry" />
        </mxCell>
        <mxCell id="83mKQvmwDJsQdVqa1Sk4-2" value="CLIENTE" style="whiteSpace=wrap;html=1;align=center;" vertex="1" parent="1">
          <mxGeometry x="245" y="380" width="100" height="40" as="geometry" />
        </mxCell>
        <mxCell id="83mKQvmwDJsQdVqa1Sk4-3" value="tener" style="shape=rhombus;perimeter=rhombusPerimeter;whiteSpace=wrap;html=1;align=center;" vertex="1" parent="1">
          <mxGeometry x="235" y="250" width="120" height="60" as="geometry" />
        </mxCell>
        <mxCell id="83mKQvmwDJsQdVqa1Sk4-6" value="" style="endArrow=none;html=1;rounded=0;exitX=0.5;exitY=1;exitDx=0;exitDy=0;" edge="1" parent="1" source="83mKQvmwDJsQdVqa1Sk4-1" target="83mKQvmwDJsQdVqa1Sk4-3">
          <mxGeometry relative="1" as="geometry">
            <mxPoint x="335" y="230" as="sourcePoint" />
            <mxPoint x="495" y="230" as="targetPoint" />
          </mxGeometry>
        </mxCell>
        <mxCell id="83mKQvmwDJsQdVqa1Sk4-7" value="" style="endArrow=none;html=1;rounded=0;exitX=0.5;exitY=1;exitDx=0;exitDy=0;entryX=0.5;entryY=0;entryDx=0;entryDy=0;" edge="1" parent="1" source="83mKQvmwDJsQdVqa1Sk4-3" target="83mKQvmwDJsQdVqa1Sk4-2">
          <mxGeometry relative="1" as="geometry">
            <mxPoint x="375" y="260" as="sourcePoint" />
            <mxPoint x="535" y="260" as="targetPoint" />
          </mxGeometry>
        </mxCell>
        <mxCell id="83mKQvmwDJsQdVqa1Sk4-8" value="" style="endArrow=oval;html=1;rounded=0;exitX=0;exitY=0.25;exitDx=0;exitDy=0;endFill=1;" edge="1" parent="1">
          <mxGeometry relative="1" as="geometry">
            <mxPoint x="245" y="380" as="sourcePoint" />
            <mxPoint x="205" y="380" as="targetPoint" />
          </mxGeometry>
        </mxCell>
        <mxCell id="83mKQvmwDJsQdVqa1Sk4-12" value="Codigo" style="text;strokeColor=none;fillColor=none;spacingLeft=4;spacingRight=4;overflow=hidden;rotatable=0;points=[[0,0.5],[1,0.5]];portConstraint=eastwest;fontSize=10;whiteSpace=wrap;html=1;" vertex="1" parent="1">
          <mxGeometry x="161" y="367" width="60" height="30" as="geometry" />
        </mxCell>
        <mxCell id="83mKQvmwDJsQdVqa1Sk4-14" value="Nombre" style="text;strokeColor=none;fillColor=none;spacingLeft=4;spacingRight=4;overflow=hidden;rotatable=0;points=[[0,0.5],[1,0.5]];portConstraint=eastwest;fontSize=10;whiteSpace=wrap;html=1;" vertex="1" parent="1">
          <mxGeometry x="157" y="386" width="56" height="30" as="geometry" />
        </mxCell>
        <mxCell id="83mKQvmwDJsQdVqa1Sk4-15" value="Direccion" style="text;strokeColor=none;fillColor=none;spacingLeft=4;spacingRight=4;overflow=hidden;rotatable=0;points=[[0,0.5],[1,0.5]];portConstraint=eastwest;fontSize=10;whiteSpace=wrap;html=1;" vertex="1" parent="1">
          <mxGeometry x="150" y="405" width="60" height="30" as="geometry" />
        </mxCell>
        <mxCell id="83mKQvmwDJsQdVqa1Sk4-16" value="" style="endArrow=oval;html=1;rounded=0;exitX=0;exitY=0.25;exitDx=0;exitDy=0;endFill=0;" edge="1" parent="1">
          <mxGeometry relative="1" as="geometry">
            <mxPoint x="245" y="399.83" as="sourcePoint" />
            <mxPoint x="205" y="399.83" as="targetPoint" />
          </mxGeometry>
        </mxCell>
        <mxCell id="83mKQvmwDJsQdVqa1Sk4-18" value="" style="endArrow=oval;html=1;rounded=0;endFill=0;" edge="1" parent="1">
          <mxGeometry relative="1" as="geometry">
            <mxPoint x="245" y="420" as="sourcePoint" />
            <mxPoint x="205" y="420" as="targetPoint" />
          </mxGeometry>
        </mxCell>
        <mxCell id="83mKQvmwDJsQdVqa1Sk4-21" value="(1, 1)" style="text;html=1;align=center;verticalAlign=middle;resizable=0;points=[];autosize=1;strokeColor=none;fillColor=none;" vertex="1" parent="1">
          <mxGeometry x="295" y="356" width="50" height="30" as="geometry" />
        </mxCell>
        <mxCell id="83mKQvmwDJsQdVqa1Sk4-22" value="1:N" style="text;html=1;align=center;verticalAlign=middle;resizable=0;points=[];autosize=1;strokeColor=none;fillColor=none;" vertex="1" parent="1">
          <mxGeometry x="355" y="265" width="40" height="30" as="geometry" />
        </mxCell>
        <mxCell id="83mKQvmwDJsQdVqa1Sk4-24" value="" style="endArrow=oval;html=1;rounded=0;exitX=0;exitY=0.25;exitDx=0;exitDy=0;endFill=1;" edge="1" parent="1">
          <mxGeometry relative="1" as="geometry">
            <mxPoint x="245" y="150" as="sourcePoint" />
            <mxPoint x="205" y="150" as="targetPoint" />
          </mxGeometry>
        </mxCell>
        <mxCell id="83mKQvmwDJsQdVqa1Sk4-25" value="CCC" style="text;html=1;align=center;verticalAlign=middle;resizable=0;points=[];autosize=1;strokeColor=none;fillColor=none;" vertex="1" parent="1">
          <mxGeometry x="157" y="135" width="50" height="30" as="geometry" />
        </mxCell>
        <mxCell id="83mKQvmwDJsQdVqa1Sk4-32" value="" style="endArrow=oval;html=1;rounded=0;exitX=0;exitY=0.25;exitDx=0;exitDy=0;endFill=0;" edge="1" parent="1">
          <mxGeometry relative="1" as="geometry">
            <mxPoint x="245" y="169.75999999999996" as="sourcePoint" />
            <mxPoint x="205" y="169.75999999999996" as="targetPoint" />
          </mxGeometry>
        </mxCell>
        <mxCell id="83mKQvmwDJsQdVqa1Sk4-33" value="TipoCuenta" style="text;html=1;align=center;verticalAlign=middle;resizable=0;points=[];autosize=1;strokeColor=none;fillColor=none;" vertex="1" parent="1">
          <mxGeometry x="120" y="155" width="90" height="30" as="geometry" />
        </mxCell>
        <mxCell id="83mKQvmwDJsQdVqa1Sk4-34" value="" style="endArrow=oval;html=1;rounded=0;exitX=0;exitY=0.25;exitDx=0;exitDy=0;endFill=0;dashed=1;" edge="1" parent="1">
          <mxGeometry relative="1" as="geometry">
            <mxPoint x="245" y="189.99999999999997" as="sourcePoint" />
            <mxPoint x="205" y="189.99999999999997" as="targetPoint" />
          </mxGeometry>
        </mxCell>
        <mxCell id="83mKQvmwDJsQdVqa1Sk4-35" value="TipoAmortizacion" style="text;html=1;align=center;verticalAlign=middle;resizable=0;points=[];autosize=1;strokeColor=none;fillColor=none;" vertex="1" parent="1">
          <mxGeometry x="90" y="178" width="120" height="30" as="geometry" />
        </mxCell>
        <mxCell id="83mKQvmwDJsQdVqa1Sk4-36" value="" style="triangle;whiteSpace=wrap;html=1;rotation=90;" vertex="1" parent="1">
          <mxGeometry x="265" y="460" width="60" height="80" as="geometry" />
        </mxCell>
        <mxCell id="83mKQvmwDJsQdVqa1Sk4-42" value="" style="endArrow=none;html=1;rounded=0;exitX=0.5;exitY=1;exitDx=0;exitDy=0;entryX=0;entryY=0.5;entryDx=0;entryDy=0;" edge="1" parent="1" source="83mKQvmwDJsQdVqa1Sk4-2" target="83mKQvmwDJsQdVqa1Sk4-36">
          <mxGeometry relative="1" as="geometry">
            <mxPoint x="445" y="450" as="sourcePoint" />
            <mxPoint x="445" y="520" as="targetPoint" />
          </mxGeometry>
        </mxCell>
        <mxCell id="83mKQvmwDJsQdVqa1Sk4-46" value="" style="endArrow=none;html=1;rounded=0;exitX=0.5;exitY=1;exitDx=0;exitDy=0;" edge="1" parent="1" source="83mKQvmwDJsQdVqa1Sk4-36">
          <mxGeometry relative="1" as="geometry">
            <mxPoint x="305" y="430" as="sourcePoint" />
            <mxPoint x="245" y="520" as="targetPoint" />
          </mxGeometry>
        </mxCell>
        <mxCell id="83mKQvmwDJsQdVqa1Sk4-47" value="" style="endArrow=none;html=1;rounded=0;exitX=0.5;exitY=0;exitDx=0;exitDy=0;" edge="1" parent="1" source="83mKQvmwDJsQdVqa1Sk4-36">
          <mxGeometry relative="1" as="geometry">
            <mxPoint x="315" y="440" as="sourcePoint" />
            <mxPoint x="355" y="520" as="targetPoint" />
          </mxGeometry>
        </mxCell>
        <mxCell id="83mKQvmwDJsQdVqa1Sk4-48" value="PERSONA" style="whiteSpace=wrap;html=1;align=center;" vertex="1" parent="1">
          <mxGeometry x="145" y="520" width="100" height="40" as="geometry" />
        </mxCell>
        <mxCell id="83mKQvmwDJsQdVqa1Sk4-49" value="ORGANIZACION" style="whiteSpace=wrap;html=1;align=center;" vertex="1" parent="1">
          <mxGeometry x="355" y="520" width="100" height="40" as="geometry" />
        </mxCell>
        <mxCell id="83mKQvmwDJsQdVqa1Sk4-51" value="" style="endArrow=oval;html=1;rounded=0;exitX=0;exitY=0;exitDx=0;exitDy=0;endFill=0;" edge="1" parent="1" source="83mKQvmwDJsQdVqa1Sk4-48">
          <mxGeometry relative="1" as="geometry">
            <mxPoint x="175" y="600" as="sourcePoint" />
            <mxPoint x="105" y="520" as="targetPoint" />
          </mxGeometry>
        </mxCell>
        <mxCell id="83mKQvmwDJsQdVqa1Sk4-53" value="FechaNacimiento" style="text;html=1;align=center;verticalAlign=middle;resizable=0;points=[];autosize=1;strokeColor=none;fillColor=none;" vertex="1" parent="1">
          <mxGeometry x="-10" y="505" width="120" height="30" as="geometry" />
        </mxCell>
        <mxCell id="83mKQvmwDJsQdVqa1Sk4-55" value="" style="endArrow=oval;html=1;rounded=0;exitX=0;exitY=0;exitDx=0;exitDy=0;endFill=0;" edge="1" parent="1">
          <mxGeometry relative="1" as="geometry">
            <mxPoint x="145" y="540" as="sourcePoint" />
            <mxPoint x="105" y="540" as="targetPoint" />
          </mxGeometry>
        </mxCell>
        <mxCell id="83mKQvmwDJsQdVqa1Sk4-56" value="Sexo" style="text;html=1;align=center;verticalAlign=middle;resizable=0;points=[];autosize=1;strokeColor=none;fillColor=none;" vertex="1" parent="1">
          <mxGeometry x="55" y="525" width="50" height="30" as="geometry" />
        </mxCell>
        <mxCell id="83mKQvmwDJsQdVqa1Sk4-57" value="" style="endArrow=oval;html=1;rounded=0;exitX=1;exitY=0;exitDx=0;exitDy=0;endFill=0;" edge="1" parent="1" source="83mKQvmwDJsQdVqa1Sk4-49">
          <mxGeometry relative="1" as="geometry">
            <mxPoint x="519" y="550" as="sourcePoint" />
            <mxPoint x="495" y="520" as="targetPoint" />
          </mxGeometry>
        </mxCell>
        <mxCell id="83mKQvmwDJsQdVqa1Sk4-59" value="Tipo" style="text;html=1;align=center;verticalAlign=middle;resizable=0;points=[];autosize=1;strokeColor=none;fillColor=none;" vertex="1" parent="1">
          <mxGeometry x="491" y="505" width="50" height="30" as="geometry" />
        </mxCell>
        <mxCell id="83mKQvmwDJsQdVqa1Sk4-60" value="" style="endArrow=oval;html=1;rounded=0;exitX=1;exitY=0;exitDx=0;exitDy=0;endFill=0;" edge="1" parent="1">
          <mxGeometry relative="1" as="geometry">
            <mxPoint x="455" y="540" as="sourcePoint" />
            <mxPoint x="495" y="540" as="targetPoint" />
            <Array as="points">
              <mxPoint x="475" y="540" />
            </Array>
          </mxGeometry>
        </mxCell>
        <mxCell id="83mKQvmwDJsQdVqa1Sk4-61" value="Representante" style="text;html=1;align=center;verticalAlign=middle;resizable=0;points=[];autosize=1;strokeColor=none;fillColor=none;" vertex="1" parent="1">
          <mxGeometry x="494" y="525" width="100" height="30" as="geometry" />
        </mxCell>
        <mxCell id="83mKQvmwDJsQdVqa1Sk4-62" value="" style="endArrow=oval;html=1;rounded=0;exitX=1;exitY=0;exitDx=0;exitDy=0;endFill=0;" edge="1" parent="1">
          <mxGeometry relative="1" as="geometry">
            <mxPoint x="455" y="559.67" as="sourcePoint" />
            <mxPoint x="495" y="559.67" as="targetPoint" />
            <Array as="points">
              <mxPoint x="475" y="559.67" />
            </Array>
          </mxGeometry>
        </mxCell>
        <mxCell id="83mKQvmwDJsQdVqa1Sk4-63" value="NumEmpleados" style="text;html=1;align=center;verticalAlign=middle;resizable=0;points=[];autosize=1;strokeColor=none;fillColor=none;" vertex="1" parent="1">
          <mxGeometry x="491" y="544" width="110" height="30" as="geometry" />
        </mxCell>
        <mxCell id="83mKQvmwDJsQdVqa1Sk4-64" value="SUCURSAL" style="whiteSpace=wrap;html=1;align=center;" vertex="1" parent="1">
          <mxGeometry x="594" y="150" width="100" height="40" as="geometry" />
        </mxCell>
        <mxCell id="83mKQvmwDJsQdVqa1Sk4-66" value="" style="endArrow=oval;html=1;rounded=0;exitX=1;exitY=0;exitDx=0;exitDy=0;endFill=1;" edge="1" parent="1" source="83mKQvmwDJsQdVqa1Sk4-64">
          <mxGeometry relative="1" as="geometry">
            <mxPoint x="696" y="150" as="sourcePoint" />
            <mxPoint x="740" y="150" as="targetPoint" />
          </mxGeometry>
        </mxCell>
        <mxCell id="83mKQvmwDJsQdVqa1Sk4-69" value="Numero" style="text;html=1;align=center;verticalAlign=middle;resizable=0;points=[];autosize=1;strokeColor=none;fillColor=none;" vertex="1" parent="1">
          <mxGeometry x="740" y="135" width="70" height="30" as="geometry" />
        </mxCell>
        <mxCell id="83mKQvmwDJsQdVqa1Sk4-70" value="" style="endArrow=oval;html=1;rounded=0;endFill=0;exitX=1;exitY=0.5;exitDx=0;exitDy=0;" edge="1" parent="1" source="83mKQvmwDJsQdVqa1Sk4-64">
          <mxGeometry relative="1" as="geometry">
            <mxPoint x="705" y="170" as="sourcePoint" />
            <mxPoint x="740" y="169.8" as="targetPoint" />
          </mxGeometry>
        </mxCell>
        <mxCell id="83mKQvmwDJsQdVqa1Sk4-73" value="Direccion" style="text;html=1;align=center;verticalAlign=middle;resizable=0;points=[];autosize=1;strokeColor=none;fillColor=none;" vertex="1" parent="1">
          <mxGeometry x="740" y="155" width="70" height="30" as="geometry" />
        </mxCell>
        <mxCell id="83mKQvmwDJsQdVqa1Sk4-74" value="" style="endArrow=oval;html=1;rounded=0;endFill=0;exitX=1;exitY=1;exitDx=0;exitDy=0;" edge="1" parent="1" source="83mKQvmwDJsQdVqa1Sk4-64">
          <mxGeometry relative="1" as="geometry">
            <mxPoint x="695" y="190" as="sourcePoint" />
            <mxPoint x="740" y="189.67000000000002" as="targetPoint" />
          </mxGeometry>
        </mxCell>
        <mxCell id="83mKQvmwDJsQdVqa1Sk4-75" value="CodigoPostal" style="text;html=1;align=center;verticalAlign=middle;resizable=0;points=[];autosize=1;strokeColor=none;fillColor=none;" vertex="1" parent="1">
          <mxGeometry x="737" y="175" width="90" height="30" as="geometry" />
        </mxCell>
        <mxCell id="83mKQvmwDJsQdVqa1Sk4-76" value="" style="endArrow=oval;html=1;rounded=0;exitX=1;exitY=1;exitDx=0;exitDy=0;endFill=0;entryX=0.484;entryY=0.004;entryDx=0;entryDy=0;entryPerimeter=0;" edge="1" parent="1" source="83mKQvmwDJsQdVqa1Sk4-64" target="83mKQvmwDJsQdVqa1Sk4-77">
          <mxGeometry relative="1" as="geometry">
            <mxPoint x="690" y="208.00000000000003" as="sourcePoint" />
            <mxPoint x="693" y="224" as="targetPoint" />
          </mxGeometry>
        </mxCell>
        <mxCell id="83mKQvmwDJsQdVqa1Sk4-77" value="Ciudad" style="text;html=1;align=center;verticalAlign=middle;resizable=0;points=[];autosize=1;strokeColor=none;fillColor=none;" vertex="1" parent="1">
          <mxGeometry x="665" y="220" width="60" height="30" as="geometry" />
        </mxCell>
        <mxCell id="83mKQvmwDJsQdVqa1Sk4-78" value="(1, n)" style="text;html=1;align=center;verticalAlign=middle;resizable=0;points=[];autosize=1;strokeColor=none;fillColor=none;" vertex="1" parent="1">
          <mxGeometry x="295" y="185" width="50" height="30" as="geometry" />
        </mxCell>
        <mxCell id="83mKQvmwDJsQdVqa1Sk4-79" value="" style="endArrow=oval;html=1;rounded=0;exitX=0;exitY=0;exitDx=0;exitDy=0;endFill=0;" edge="1" parent="1" source="83mKQvmwDJsQdVqa1Sk4-1">
          <mxGeometry relative="1" as="geometry">
            <mxPoint x="275" y="119.99999999999997" as="sourcePoint" />
            <mxPoint x="245" y="110" as="targetPoint" />
          </mxGeometry>
        </mxCell>
        <mxCell id="83mKQvmwDJsQdVqa1Sk4-81" value="SaldoActual" style="text;html=1;align=center;verticalAlign=middle;resizable=0;points=[];autosize=1;strokeColor=none;fillColor=none;" vertex="1" parent="1">
          <mxGeometry x="200" y="78" width="90" height="30" as="geometry" />
        </mxCell>
        <mxCell id="83mKQvmwDJsQdVqa1Sk4-82" value="" style="endArrow=oval;html=1;rounded=0;exitX=0;exitY=0;exitDx=0;exitDy=0;endFill=0;" edge="1" parent="1">
          <mxGeometry relative="1" as="geometry">
            <mxPoint x="345" y="150" as="sourcePoint" />
            <mxPoint x="345" y="110" as="targetPoint" />
          </mxGeometry>
        </mxCell>
        <mxCell id="83mKQvmwDJsQdVqa1Sk4-83" value="SaldoMedio" style="text;html=1;align=center;verticalAlign=middle;resizable=0;points=[];autosize=1;strokeColor=none;fillColor=none;" vertex="1" parent="1">
          <mxGeometry x="305" y="78" width="90" height="30" as="geometry" />
        </mxCell>
        <mxCell id="83mKQvmwDJsQdVqa1Sk4-84" value="EMPLEADO" style="whiteSpace=wrap;html=1;align=center;" vertex="1" parent="1">
          <mxGeometry x="603" y="380" width="86" height="43" as="geometry" />
        </mxCell>
        <mxCell id="83mKQvmwDJsQdVqa1Sk4-85" value="trabajar" style="shape=rhombus;perimeter=rhombusPerimeter;whiteSpace=wrap;html=1;align=center;" vertex="1" parent="1">
          <mxGeometry x="586" y="265" width="120" height="60" as="geometry" />
        </mxCell>
        <mxCell id="83mKQvmwDJsQdVqa1Sk4-86" value="" style="endArrow=none;html=1;rounded=0;exitX=0.5;exitY=1;exitDx=0;exitDy=0;entryX=0.5;entryY=0;entryDx=0;entryDy=0;" edge="1" parent="1" source="83mKQvmwDJsQdVqa1Sk4-85" target="83mKQvmwDJsQdVqa1Sk4-84">
          <mxGeometry relative="1" as="geometry">
            <mxPoint x="600" y="380" as="sourcePoint" />
            <mxPoint x="760" y="380" as="targetPoint" />
          </mxGeometry>
        </mxCell>
        <mxCell id="83mKQvmwDJsQdVqa1Sk4-87" value="" style="endArrow=none;html=1;rounded=0;entryX=0.5;entryY=0;entryDx=0;entryDy=0;exitX=0.5;exitY=1;exitDx=0;exitDy=0;" edge="1" parent="1" source="83mKQvmwDJsQdVqa1Sk4-64" target="83mKQvmwDJsQdVqa1Sk4-85">
          <mxGeometry relative="1" as="geometry">
            <mxPoint x="650" y="190" as="sourcePoint" />
            <mxPoint x="810" y="190" as="targetPoint" />
          </mxGeometry>
        </mxCell>
        <mxCell id="83mKQvmwDJsQdVqa1Sk4-88" value="(0, n)" style="text;html=1;align=center;verticalAlign=middle;resizable=0;points=[];autosize=1;strokeColor=none;fillColor=none;" vertex="1" parent="1">
          <mxGeometry x="603" y="356" width="50" height="30" as="geometry" />
        </mxCell>
        <mxCell id="83mKQvmwDJsQdVqa1Sk4-89" value="(1, 1)" style="text;html=1;align=center;verticalAlign=middle;resizable=0;points=[];autosize=1;strokeColor=none;fillColor=none;" vertex="1" parent="1">
          <mxGeometry x="599" y="185" width="50" height="30" as="geometry" />
        </mxCell>
        <mxCell id="83mKQvmwDJsQdVqa1Sk4-90" value="1:N" style="text;html=1;align=center;verticalAlign=middle;resizable=0;points=[];autosize=1;strokeColor=none;fillColor=none;" vertex="1" parent="1">
          <mxGeometry x="541" y="280" width="40" height="30" as="geometry" />
        </mxCell>
        <mxCell id="83mKQvmwDJsQdVqa1Sk4-92" value="dirigir" style="shape=rhombus;perimeter=rhombusPerimeter;whiteSpace=wrap;html=1;align=center;" vertex="1" parent="1">
          <mxGeometry x="421" y="140" width="120" height="60" as="geometry" />
        </mxCell>
        <mxCell id="83mKQvmwDJsQdVqa1Sk4-94" value="" style="endArrow=oval;html=1;rounded=0;exitX=0;exitY=0.25;exitDx=0;exitDy=0;endFill=1;" edge="1" parent="1">
          <mxGeometry relative="1" as="geometry">
            <mxPoint x="603" y="380" as="sourcePoint" />
            <mxPoint x="563" y="380" as="targetPoint" />
          </mxGeometry>
        </mxCell>
        <mxCell id="83mKQvmwDJsQdVqa1Sk4-95" value="Dni" style="text;html=1;align=center;verticalAlign=middle;resizable=0;points=[];autosize=1;strokeColor=none;fillColor=none;" vertex="1" parent="1">
          <mxGeometry x="519" y="367" width="40" height="30" as="geometry" />
        </mxCell>
        <mxCell id="83mKQvmwDJsQdVqa1Sk4-96" value="" style="endArrow=oval;html=1;rounded=0;exitX=0;exitY=0.25;exitDx=0;exitDy=0;endFill=0;" edge="1" parent="1">
          <mxGeometry relative="1" as="geometry">
            <mxPoint x="603" y="405" as="sourcePoint" />
            <mxPoint x="563" y="405" as="targetPoint" />
          </mxGeometry>
        </mxCell>
        <mxCell id="83mKQvmwDJsQdVqa1Sk4-97" value="" style="endArrow=oval;html=1;rounded=0;exitX=0;exitY=0.25;exitDx=0;exitDy=0;endFill=0;" edge="1" parent="1">
          <mxGeometry relative="1" as="geometry">
            <mxPoint x="603" y="423" as="sourcePoint" />
            <mxPoint x="563" y="423" as="targetPoint" />
          </mxGeometry>
        </mxCell>
        <mxCell id="83mKQvmwDJsQdVqa1Sk4-98" value="Nombre" style="text;html=1;align=center;verticalAlign=middle;resizable=0;points=[];autosize=1;strokeColor=none;fillColor=none;" vertex="1" parent="1">
          <mxGeometry x="500" y="388" width="70" height="30" as="geometry" />
        </mxCell>
        <mxCell id="83mKQvmwDJsQdVqa1Sk4-99" value="" style="endArrow=none;html=1;rounded=0;entryX=0;entryY=0.5;entryDx=0;entryDy=0;exitX=1;exitY=0.5;exitDx=0;exitDy=0;" edge="1" parent="1" source="83mKQvmwDJsQdVqa1Sk4-92" target="83mKQvmwDJsQdVqa1Sk4-64">
          <mxGeometry relative="1" as="geometry">
            <mxPoint x="465" y="240" as="sourcePoint" />
            <mxPoint x="625" y="240" as="targetPoint" />
          </mxGeometry>
        </mxCell>
        <mxCell id="83mKQvmwDJsQdVqa1Sk4-100" value="" style="endArrow=none;html=1;rounded=0;exitX=1;exitY=0.5;exitDx=0;exitDy=0;entryX=0;entryY=0.5;entryDx=0;entryDy=0;" edge="1" parent="1" source="83mKQvmwDJsQdVqa1Sk4-1" target="83mKQvmwDJsQdVqa1Sk4-92">
          <mxGeometry relative="1" as="geometry">
            <mxPoint x="375" y="260" as="sourcePoint" />
            <mxPoint x="535" y="260" as="targetPoint" />
          </mxGeometry>
        </mxCell>
        <mxCell id="83mKQvmwDJsQdVqa1Sk4-101" value="(1, 1)" style="text;html=1;align=center;verticalAlign=middle;resizable=0;points=[];autosize=1;strokeColor=none;fillColor=none;" vertex="1" parent="1">
          <mxGeometry x="549" y="145" width="50" height="30" as="geometry" />
        </mxCell>
        <mxCell id="83mKQvmwDJsQdVqa1Sk4-102" value="(1, n)" style="text;html=1;align=center;verticalAlign=middle;resizable=0;points=[];autosize=1;strokeColor=none;fillColor=none;" vertex="1" parent="1">
          <mxGeometry x="345" y="145" width="50" height="30" as="geometry" />
        </mxCell>
        <mxCell id="83mKQvmwDJsQdVqa1Sk4-103" value="1:N" style="text;html=1;align=center;verticalAlign=middle;resizable=0;points=[];autosize=1;strokeColor=none;fillColor=none;" vertex="1" parent="1">
          <mxGeometry x="461" y="110" width="40" height="30" as="geometry" />
        </mxCell>
        <mxCell id="83mKQvmwDJsQdVqa1Sk4-104" value="FechaNacimiento" style="text;html=1;align=center;verticalAlign=middle;resizable=0;points=[];autosize=1;strokeColor=none;fillColor=none;" vertex="1" parent="1">
          <mxGeometry x="450" y="408" width="120" height="30" as="geometry" />
        </mxCell>
        <mxCell id="83mKQvmwDJsQdVqa1Sk4-105" value="" style="endArrow=oval;html=1;rounded=0;exitX=0;exitY=1;exitDx=0;exitDy=0;endFill=0;" edge="1" parent="1" source="83mKQvmwDJsQdVqa1Sk4-84">
          <mxGeometry relative="1" as="geometry">
            <mxPoint x="740" y="416" as="sourcePoint" />
            <mxPoint x="603" y="460" as="targetPoint" />
          </mxGeometry>
        </mxCell>
        <mxCell id="83mKQvmwDJsQdVqa1Sk4-106" value="Sexo" style="text;html=1;align=center;verticalAlign=middle;resizable=0;points=[];autosize=1;strokeColor=none;fillColor=none;" vertex="1" parent="1">
          <mxGeometry x="581" y="460" width="50" height="30" as="geometry" />
        </mxCell>
        <mxCell id="83mKQvmwDJsQdVqa1Sk4-108" value="CLIENTE" style="whiteSpace=wrap;html=1;align=center;" vertex="1" parent="1">
          <mxGeometry x="110" y="1440" width="100" height="40" as="geometry" />
        </mxCell>
        <mxCell id="83mKQvmwDJsQdVqa1Sk4-109" value="RESERVA" style="whiteSpace=wrap;html=1;align=center;" vertex="1" parent="1">
          <mxGeometry x="456" y="1440" width="100" height="40" as="geometry" />
        </mxCell>
        <mxCell id="83mKQvmwDJsQdVqa1Sk4-110" value="COCHE" style="whiteSpace=wrap;html=1;align=center;" vertex="1" parent="1">
          <mxGeometry x="456" y="1250" width="100" height="40" as="geometry" />
        </mxCell>
        <mxCell id="83mKQvmwDJsQdVqa1Sk4-111" value="AGENCIA" style="whiteSpace=wrap;html=1;align=center;" vertex="1" parent="1">
          <mxGeometry x="456" y="1660" width="100" height="40" as="geometry" />
        </mxCell>
        <mxCell id="83mKQvmwDJsQdVqa1Sk4-114" value="realizar" style="shape=rhombus;perimeter=rhombusPerimeter;whiteSpace=wrap;html=1;align=center;" vertex="1" parent="1">
          <mxGeometry x="275" y="1430" width="120" height="60" as="geometry" />
        </mxCell>
        <mxCell id="83mKQvmwDJsQdVqa1Sk4-117" value="gestionar" style="shape=rhombus;perimeter=rhombusPerimeter;whiteSpace=wrap;html=1;align=center;" vertex="1" parent="1">
          <mxGeometry x="445" y="1540" width="120" height="60" as="geometry" />
        </mxCell>
        <mxCell id="83mKQvmwDJsQdVqa1Sk4-118" value="involucrar" style="shape=rhombus;perimeter=rhombusPerimeter;whiteSpace=wrap;html=1;align=center;" vertex="1" parent="1">
          <mxGeometry x="446" y="1330" width="120" height="60" as="geometry" />
        </mxCell>
        <mxCell id="83mKQvmwDJsQdVqa1Sk4-119" value="" style="endArrow=oval;html=1;rounded=0;endFill=1;exitX=0;exitY=0;exitDx=0;exitDy=0;" edge="1" parent="1" source="83mKQvmwDJsQdVqa1Sk4-108">
          <mxGeometry relative="1" as="geometry">
            <mxPoint x="70" y="1440" as="sourcePoint" />
            <mxPoint x="70" y="1440" as="targetPoint" />
          </mxGeometry>
        </mxCell>
        <mxCell id="83mKQvmwDJsQdVqa1Sk4-120" value="Dni" style="text;html=1;align=center;verticalAlign=middle;resizable=0;points=[];autosize=1;strokeColor=none;fillColor=none;" vertex="1" parent="1">
          <mxGeometry x="20" y="1428" width="40" height="30" as="geometry" />
        </mxCell>
        <mxCell id="83mKQvmwDJsQdVqa1Sk4-122" value="" style="endArrow=oval;html=1;rounded=0;endFill=1;exitX=0;exitY=0;exitDx=0;exitDy=0;" edge="1" parent="1" source="83mKQvmwDJsQdVqa1Sk4-111">
          <mxGeometry relative="1" as="geometry">
            <mxPoint x="440" y="1670" as="sourcePoint" />
            <mxPoint x="420" y="1660" as="targetPoint" />
          </mxGeometry>
        </mxCell>
        <mxCell id="83mKQvmwDJsQdVqa1Sk4-123" value="Cif" style="text;html=1;align=center;verticalAlign=middle;resizable=0;points=[];autosize=1;strokeColor=none;fillColor=none;" vertex="1" parent="1">
          <mxGeometry x="374" y="1640" width="40" height="30" as="geometry" />
        </mxCell>
        <mxCell id="83mKQvmwDJsQdVqa1Sk4-124" value="" style="endArrow=oval;html=1;rounded=0;endFill=1;exitX=1;exitY=1;exitDx=0;exitDy=0;" edge="1" parent="1">
          <mxGeometry relative="1" as="geometry">
            <mxPoint x="556" y="1440" as="sourcePoint" />
            <mxPoint x="600" y="1440" as="targetPoint" />
          </mxGeometry>
        </mxCell>
        <mxCell id="83mKQvmwDJsQdVqa1Sk4-125" value="Codigo" style="text;html=1;align=left;verticalAlign=middle;resizable=0;points=[];autosize=1;strokeColor=none;fillColor=none;" vertex="1" parent="1">
          <mxGeometry x="608" y="1428" width="60" height="30" as="geometry" />
        </mxCell>
        <mxCell id="83mKQvmwDJsQdVqa1Sk4-128" value="" style="endArrow=oval;html=1;rounded=0;endFill=1;exitX=1;exitY=1;exitDx=0;exitDy=0;" edge="1" parent="1">
          <mxGeometry relative="1" as="geometry">
            <mxPoint x="556" y="1250" as="sourcePoint" />
            <mxPoint x="600" y="1250" as="targetPoint" />
          </mxGeometry>
        </mxCell>
        <mxCell id="83mKQvmwDJsQdVqa1Sk4-129" value="Matricula" style="text;html=1;align=center;verticalAlign=middle;resizable=0;points=[];autosize=1;strokeColor=none;fillColor=none;" vertex="1" parent="1">
          <mxGeometry x="603" y="1240" width="70" height="30" as="geometry" />
        </mxCell>
        <mxCell id="83mKQvmwDJsQdVqa1Sk4-130" value="" style="endArrow=oval;html=1;rounded=0;endFill=0;exitX=1;exitY=1;exitDx=0;exitDy=0;" edge="1" parent="1">
          <mxGeometry relative="1" as="geometry">
            <mxPoint x="556" y="1270" as="sourcePoint" />
            <mxPoint x="600" y="1270" as="targetPoint" />
          </mxGeometry>
        </mxCell>
        <mxCell id="83mKQvmwDJsQdVqa1Sk4-131" value="Garaje" style="text;html=1;align=center;verticalAlign=middle;resizable=0;points=[];autosize=1;strokeColor=none;fillColor=none;" vertex="1" parent="1">
          <mxGeometry x="601" y="1260" width="60" height="30" as="geometry" />
        </mxCell>
        <mxCell id="83mKQvmwDJsQdVqa1Sk4-133" value="" style="endArrow=oval;html=1;rounded=0;endFill=0;exitX=1;exitY=1;exitDx=0;exitDy=0;" edge="1" parent="1">
          <mxGeometry relative="1" as="geometry">
            <mxPoint x="556" y="1460" as="sourcePoint" />
            <mxPoint x="600" y="1460" as="targetPoint" />
          </mxGeometry>
        </mxCell>
        <mxCell id="83mKQvmwDJsQdVqa1Sk4-134" value="FechaComienzo" style="text;html=1;align=left;verticalAlign=middle;resizable=0;points=[];autosize=1;strokeColor=none;fillColor=none;" vertex="1" parent="1">
          <mxGeometry x="608" y="1450" width="110" height="30" as="geometry" />
        </mxCell>
        <mxCell id="83mKQvmwDJsQdVqa1Sk4-135" value="" style="endArrow=oval;html=1;rounded=0;endFill=0;exitX=1;exitY=1;exitDx=0;exitDy=0;" edge="1" parent="1">
          <mxGeometry relative="1" as="geometry">
            <mxPoint x="556" y="1480" as="sourcePoint" />
            <mxPoint x="600" y="1480" as="targetPoint" />
          </mxGeometry>
        </mxCell>
        <mxCell id="83mKQvmwDJsQdVqa1Sk4-136" value="FechaTerminacion" style="text;html=1;align=left;verticalAlign=middle;resizable=0;points=[];autosize=1;strokeColor=none;fillColor=none;" vertex="1" parent="1">
          <mxGeometry x="608" y="1470" width="120" height="30" as="geometry" />
        </mxCell>
        <mxCell id="83mKQvmwDJsQdVqa1Sk4-137" value="" style="endArrow=none;html=1;rounded=0;exitX=1;exitY=0.5;exitDx=0;exitDy=0;entryX=0;entryY=0.5;entryDx=0;entryDy=0;" edge="1" parent="1" source="83mKQvmwDJsQdVqa1Sk4-108" target="83mKQvmwDJsQdVqa1Sk4-114">
          <mxGeometry relative="1" as="geometry">
            <mxPoint x="250" y="1530" as="sourcePoint" />
            <mxPoint x="410" y="1530" as="targetPoint" />
          </mxGeometry>
        </mxCell>
        <mxCell id="83mKQvmwDJsQdVqa1Sk4-138" value="" style="endArrow=none;html=1;rounded=0;exitX=1;exitY=0.5;exitDx=0;exitDy=0;entryX=0;entryY=0.5;entryDx=0;entryDy=0;" edge="1" parent="1" source="83mKQvmwDJsQdVqa1Sk4-114" target="83mKQvmwDJsQdVqa1Sk4-109">
          <mxGeometry relative="1" as="geometry">
            <mxPoint x="280" y="1550" as="sourcePoint" />
            <mxPoint x="440" y="1550" as="targetPoint" />
          </mxGeometry>
        </mxCell>
        <mxCell id="83mKQvmwDJsQdVqa1Sk4-139" value="" style="endArrow=none;html=1;rounded=0;exitX=0.5;exitY=1;exitDx=0;exitDy=0;entryX=0.5;entryY=0;entryDx=0;entryDy=0;" edge="1" parent="1" source="83mKQvmwDJsQdVqa1Sk4-109" target="83mKQvmwDJsQdVqa1Sk4-117">
          <mxGeometry relative="1" as="geometry">
            <mxPoint x="360" y="1550" as="sourcePoint" />
            <mxPoint x="520" y="1550" as="targetPoint" />
          </mxGeometry>
        </mxCell>
        <mxCell id="83mKQvmwDJsQdVqa1Sk4-140" value="" style="endArrow=none;html=1;rounded=0;exitX=0.5;exitY=1;exitDx=0;exitDy=0;entryX=0.5;entryY=0;entryDx=0;entryDy=0;" edge="1" parent="1" source="83mKQvmwDJsQdVqa1Sk4-110" target="83mKQvmwDJsQdVqa1Sk4-118">
          <mxGeometry relative="1" as="geometry">
            <mxPoint x="330" y="1330" as="sourcePoint" />
            <mxPoint x="490" y="1330" as="targetPoint" />
          </mxGeometry>
        </mxCell>
        <mxCell id="83mKQvmwDJsQdVqa1Sk4-141" value="" style="endArrow=none;html=1;rounded=0;entryX=0.5;entryY=1;entryDx=0;entryDy=0;exitX=0.5;exitY=0;exitDx=0;exitDy=0;" edge="1" parent="1" source="83mKQvmwDJsQdVqa1Sk4-109" target="83mKQvmwDJsQdVqa1Sk4-118">
          <mxGeometry relative="1" as="geometry">
            <mxPoint x="360" y="1370" as="sourcePoint" />
            <mxPoint x="520" y="1370" as="targetPoint" />
          </mxGeometry>
        </mxCell>
        <mxCell id="83mKQvmwDJsQdVqa1Sk4-142" value="" style="endArrow=none;html=1;rounded=0;exitX=0.5;exitY=0;exitDx=0;exitDy=0;entryX=0.5;entryY=1;entryDx=0;entryDy=0;" edge="1" parent="1" source="83mKQvmwDJsQdVqa1Sk4-111" target="83mKQvmwDJsQdVqa1Sk4-117">
          <mxGeometry relative="1" as="geometry">
            <mxPoint x="350" y="1600" as="sourcePoint" />
            <mxPoint x="510" y="1600" as="targetPoint" />
          </mxGeometry>
        </mxCell>
        <mxCell id="83mKQvmwDJsQdVqa1Sk4-143" value="(0, 1)" style="text;html=1;align=center;verticalAlign=middle;resizable=0;points=[];autosize=1;strokeColor=none;fillColor=none;" vertex="1" parent="1">
          <mxGeometry x="205" y="1428" width="50" height="30" as="geometry" />
        </mxCell>
        <mxCell id="83mKQvmwDJsQdVqa1Sk4-144" value="(0, n)" style="text;html=1;align=center;verticalAlign=middle;resizable=0;points=[];autosize=1;strokeColor=none;fillColor=none;" vertex="1" parent="1">
          <mxGeometry x="406" y="1430" width="50" height="30" as="geometry" />
        </mxCell>
        <mxCell id="83mKQvmwDJsQdVqa1Sk4-145" value="1:N" style="text;html=1;align=center;verticalAlign=middle;resizable=0;points=[];autosize=1;strokeColor=none;fillColor=none;" vertex="1" parent="1">
          <mxGeometry x="310" y="1398" width="40" height="30" as="geometry" />
        </mxCell>
        <mxCell id="83mKQvmwDJsQdVqa1Sk4-147" value="(1, n)" style="text;html=1;align=center;verticalAlign=middle;resizable=0;points=[];autosize=1;strokeColor=none;fillColor=none;" vertex="1" parent="1">
          <mxGeometry x="506" y="1290" width="50" height="30" as="geometry" />
        </mxCell>
        <mxCell id="83mKQvmwDJsQdVqa1Sk4-148" value="(0, 1)" style="text;html=1;align=center;verticalAlign=middle;resizable=0;points=[];autosize=1;strokeColor=none;fillColor=none;" vertex="1" parent="1">
          <mxGeometry x="505" y="1408" width="50" height="30" as="geometry" />
        </mxCell>
        <mxCell id="83mKQvmwDJsQdVqa1Sk4-149" value="1:N" style="text;html=1;align=center;verticalAlign=middle;resizable=0;points=[];autosize=1;strokeColor=none;fillColor=none;" vertex="1" parent="1">
          <mxGeometry x="570" y="1345" width="40" height="30" as="geometry" />
        </mxCell>
        <mxCell id="83mKQvmwDJsQdVqa1Sk4-150" value="(0, n)" style="text;html=1;align=center;verticalAlign=middle;resizable=0;points=[];autosize=1;strokeColor=none;fillColor=none;" vertex="1" parent="1">
          <mxGeometry x="505" y="1478" width="50" height="30" as="geometry" />
        </mxCell>
        <mxCell id="83mKQvmwDJsQdVqa1Sk4-151" value="(1, 1)" style="text;html=1;align=center;verticalAlign=middle;resizable=0;points=[];autosize=1;strokeColor=none;fillColor=none;" vertex="1" parent="1">
          <mxGeometry x="501" y="1630" width="50" height="30" as="geometry" />
        </mxCell>
        <mxCell id="83mKQvmwDJsQdVqa1Sk4-152" value="1:N" style="text;html=1;align=center;verticalAlign=middle;resizable=0;points=[];autosize=1;strokeColor=none;fillColor=none;" vertex="1" parent="1">
          <mxGeometry x="570" y="1555" width="40" height="30" as="geometry" />
        </mxCell>
        <mxCell id="83mKQvmwDJsQdVqa1Sk4-153" value="TARJETA" style="whiteSpace=wrap;html=1;align=center;" vertex="1" parent="1">
          <mxGeometry x="40" y="2000" width="100" height="40" as="geometry" />
        </mxCell>
        <mxCell id="83mKQvmwDJsQdVqa1Sk4-154" value="PERSONA" style="whiteSpace=wrap;html=1;align=center;" vertex="1" parent="1">
          <mxGeometry x="419" y="2000" width="100" height="40" as="geometry" />
        </mxCell>
        <mxCell id="83mKQvmwDJsQdVqa1Sk4-155" value="CUENTA" style="whiteSpace=wrap;html=1;align=center;" vertex="1" parent="1">
          <mxGeometry x="231" y="2240" width="100" height="40" as="geometry" />
        </mxCell>
        <mxCell id="83mKQvmwDJsQdVqa1Sk4-156" value="asociar" style="shape=rhombus;perimeter=rhombusPerimeter;whiteSpace=wrap;html=1;align=center;" vertex="1" parent="1">
          <mxGeometry x="80" y="2130" width="120" height="60" as="geometry" />
        </mxCell>
        <mxCell id="83mKQvmwDJsQdVqa1Sk4-157" value="tener" style="shape=rhombus;perimeter=rhombusPerimeter;whiteSpace=wrap;html=1;align=center;" vertex="1" parent="1">
          <mxGeometry x="355" y="2130" width="120" height="60" as="geometry" />
        </mxCell>
        <mxCell id="83mKQvmwDJsQdVqa1Sk4-158" value="poseer" style="shape=rhombus;perimeter=rhombusPerimeter;whiteSpace=wrap;html=1;align=center;" vertex="1" parent="1">
          <mxGeometry x="221" y="1990" width="120" height="60" as="geometry" />
        </mxCell>
        <mxCell id="83mKQvmwDJsQdVqa1Sk4-159" value="" style="endArrow=none;html=1;rounded=0;exitX=1;exitY=0.5;exitDx=0;exitDy=0;entryX=0;entryY=0.5;entryDx=0;entryDy=0;" edge="1" parent="1" source="83mKQvmwDJsQdVqa1Sk4-153" target="83mKQvmwDJsQdVqa1Sk4-158">
          <mxGeometry relative="1" as="geometry">
            <mxPoint x="80" y="2250" as="sourcePoint" />
            <mxPoint x="220" y="2020" as="targetPoint" />
          </mxGeometry>
        </mxCell>
        <mxCell id="83mKQvmwDJsQdVqa1Sk4-160" value="" style="endArrow=none;html=1;rounded=0;exitX=1;exitY=0.5;exitDx=0;exitDy=0;entryX=0;entryY=0.5;entryDx=0;entryDy=0;" edge="1" parent="1" source="83mKQvmwDJsQdVqa1Sk4-158" target="83mKQvmwDJsQdVqa1Sk4-154">
          <mxGeometry relative="1" as="geometry">
            <mxPoint x="430" y="2070" as="sourcePoint" />
            <mxPoint x="590" y="2070" as="targetPoint" />
          </mxGeometry>
        </mxCell>
        <mxCell id="83mKQvmwDJsQdVqa1Sk4-161" value="" style="endArrow=none;html=1;rounded=0;exitX=0.5;exitY=1;exitDx=0;exitDy=0;entryX=0.5;entryY=0;entryDx=0;entryDy=0;" edge="1" parent="1" source="83mKQvmwDJsQdVqa1Sk4-154" target="83mKQvmwDJsQdVqa1Sk4-157">
          <mxGeometry relative="1" as="geometry">
            <mxPoint x="510" y="2220" as="sourcePoint" />
            <mxPoint x="670" y="2220" as="targetPoint" />
          </mxGeometry>
        </mxCell>
        <mxCell id="83mKQvmwDJsQdVqa1Sk4-162" value="" style="endArrow=none;html=1;rounded=0;exitX=1;exitY=0;exitDx=0;exitDy=0;entryX=0.5;entryY=1;entryDx=0;entryDy=0;" edge="1" parent="1" source="83mKQvmwDJsQdVqa1Sk4-155" target="83mKQvmwDJsQdVqa1Sk4-157">
          <mxGeometry relative="1" as="geometry">
            <mxPoint x="270" y="2200" as="sourcePoint" />
            <mxPoint x="430" y="2200" as="targetPoint" />
          </mxGeometry>
        </mxCell>
        <mxCell id="83mKQvmwDJsQdVqa1Sk4-163" value="" style="endArrow=none;html=1;rounded=0;exitX=0.5;exitY=1;exitDx=0;exitDy=0;entryX=0;entryY=0;entryDx=0;entryDy=0;" edge="1" parent="1" source="83mKQvmwDJsQdVqa1Sk4-156" target="83mKQvmwDJsQdVqa1Sk4-155">
          <mxGeometry relative="1" as="geometry">
            <mxPoint x="160" y="2200" as="sourcePoint" />
            <mxPoint x="320" y="2200" as="targetPoint" />
          </mxGeometry>
        </mxCell>
        <mxCell id="83mKQvmwDJsQdVqa1Sk4-164" value="" style="endArrow=none;html=1;rounded=0;exitX=0.5;exitY=1;exitDx=0;exitDy=0;entryX=0.5;entryY=0;entryDx=0;entryDy=0;" edge="1" parent="1" source="83mKQvmwDJsQdVqa1Sk4-153" target="83mKQvmwDJsQdVqa1Sk4-156">
          <mxGeometry relative="1" as="geometry">
            <mxPoint x="80" y="2080" as="sourcePoint" />
            <mxPoint x="240" y="2080" as="targetPoint" />
          </mxGeometry>
        </mxCell>
        <mxCell id="83mKQvmwDJsQdVqa1Sk4-165" value="(0, n)" style="text;html=1;align=center;verticalAlign=middle;resizable=0;points=[];autosize=1;strokeColor=none;fillColor=none;" vertex="1" parent="1">
          <mxGeometry x="135" y="1990" width="50" height="30" as="geometry" />
        </mxCell>
        <mxCell id="83mKQvmwDJsQdVqa1Sk4-166" value="(0, 1)" style="text;html=1;align=center;verticalAlign=middle;resizable=0;points=[];autosize=1;strokeColor=none;fillColor=none;" vertex="1" parent="1">
          <mxGeometry x="369" y="1990" width="50" height="30" as="geometry" />
        </mxCell>
        <mxCell id="83mKQvmwDJsQdVqa1Sk4-167" value="1:N" style="text;html=1;align=center;verticalAlign=middle;resizable=0;points=[];autosize=1;strokeColor=none;fillColor=none;" vertex="1" parent="1">
          <mxGeometry x="260" y="1958" width="40" height="30" as="geometry" />
        </mxCell>
        <mxCell id="83mKQvmwDJsQdVqa1Sk4-168" value="(1, 1)" style="text;html=1;align=center;verticalAlign=middle;resizable=0;points=[];autosize=1;strokeColor=none;fillColor=none;" vertex="1" parent="1">
          <mxGeometry x="455" y="2038" width="50" height="30" as="geometry" />
        </mxCell>
        <mxCell id="83mKQvmwDJsQdVqa1Sk4-169" value="(0, n)" style="text;html=1;align=center;verticalAlign=middle;resizable=0;points=[];autosize=1;strokeColor=none;fillColor=none;" vertex="1" parent="1">
          <mxGeometry x="325" y="2230" width="50" height="30" as="geometry" />
        </mxCell>
        <mxCell id="83mKQvmwDJsQdVqa1Sk4-170" value="1:N" style="text;html=1;align=center;verticalAlign=middle;resizable=0;points=[];autosize=1;strokeColor=none;fillColor=none;" vertex="1" parent="1">
          <mxGeometry x="470" y="2148" width="40" height="30" as="geometry" />
        </mxCell>
        <mxCell id="83mKQvmwDJsQdVqa1Sk4-171" value="(1, 1)" style="text;html=1;align=center;verticalAlign=middle;resizable=0;points=[];autosize=1;strokeColor=none;fillColor=none;" vertex="1" parent="1">
          <mxGeometry x="181" y="2230" width="50" height="30" as="geometry" />
        </mxCell>
        <mxCell id="83mKQvmwDJsQdVqa1Sk4-173" value="(1, n)" style="text;html=1;align=center;verticalAlign=middle;resizable=0;points=[];autosize=1;strokeColor=none;fillColor=none;" vertex="1" parent="1">
          <mxGeometry x="45" y="2038" width="50" height="30" as="geometry" />
        </mxCell>
        <mxCell id="83mKQvmwDJsQdVqa1Sk4-174" value="1:N" style="text;html=1;align=center;verticalAlign=middle;resizable=0;points=[];autosize=1;strokeColor=none;fillColor=none;" vertex="1" parent="1">
          <mxGeometry x="30" y="2148" width="40" height="30" as="geometry" />
        </mxCell>
        <mxCell id="83mKQvmwDJsQdVqa1Sk4-175" value="" style="endArrow=oval;html=1;rounded=0;exitX=0;exitY=1;exitDx=0;exitDy=0;endFill=1;" edge="1" parent="1" source="83mKQvmwDJsQdVqa1Sk4-155">
          <mxGeometry relative="1" as="geometry">
            <mxPoint x="260" y="2310" as="sourcePoint" />
            <mxPoint x="230" y="2310" as="targetPoint" />
          </mxGeometry>
        </mxCell>
        <mxCell id="83mKQvmwDJsQdVqa1Sk4-176" value="Numero" style="text;html=1;align=center;verticalAlign=middle;resizable=0;points=[];autosize=1;strokeColor=none;fillColor=none;" vertex="1" parent="1">
          <mxGeometry x="195" y="2308" width="70" height="30" as="geometry" />
        </mxCell>
        <mxCell id="83mKQvmwDJsQdVqa1Sk4-177" value="" style="endArrow=oval;html=1;rounded=0;exitX=0;exitY=0;exitDx=0;exitDy=0;endFill=1;" edge="1" parent="1" source="83mKQvmwDJsQdVqa1Sk4-153">
          <mxGeometry relative="1" as="geometry">
            <mxPoint x="61" y="1900" as="sourcePoint" />
            <mxPoint x="40" y="1970" as="targetPoint" />
          </mxGeometry>
        </mxCell>
        <mxCell id="83mKQvmwDJsQdVqa1Sk4-178" value="Numero" style="text;html=1;align=center;verticalAlign=middle;resizable=0;points=[];autosize=1;strokeColor=none;fillColor=none;" vertex="1" parent="1">
          <mxGeometry y="1940" width="70" height="30" as="geometry" />
        </mxCell>
        <mxCell id="83mKQvmwDJsQdVqa1Sk4-179" value="" style="endArrow=oval;html=1;rounded=0;exitX=0;exitY=0;exitDx=0;exitDy=0;endFill=1;" edge="1" parent="1" source="83mKQvmwDJsQdVqa1Sk4-154">
          <mxGeometry relative="1" as="geometry">
            <mxPoint x="436" y="1900" as="sourcePoint" />
            <mxPoint x="420" y="1970" as="targetPoint" />
          </mxGeometry>
        </mxCell>
        <mxCell id="83mKQvmwDJsQdVqa1Sk4-180" value="Dni" style="text;html=1;align=center;verticalAlign=middle;resizable=0;points=[];autosize=1;strokeColor=none;fillColor=none;" vertex="1" parent="1">
          <mxGeometry x="401" y="1940" width="40" height="30" as="geometry" />
        </mxCell>
        <mxCell id="83mKQvmwDJsQdVqa1Sk4-184" value="" style="endArrow=oval;html=1;rounded=0;exitX=0.371;exitY=-0.012;exitDx=0;exitDy=0;exitPerimeter=0;endFill=0;" edge="1" parent="1" source="83mKQvmwDJsQdVqa1Sk4-154">
          <mxGeometry relative="1" as="geometry">
            <mxPoint x="500" y="1960" as="sourcePoint" />
            <mxPoint x="456" y="1970" as="targetPoint" />
          </mxGeometry>
        </mxCell>
        <mxCell id="83mKQvmwDJsQdVqa1Sk4-185" value="Domicilio" style="text;html=1;align=center;verticalAlign=middle;resizable=0;points=[];autosize=1;strokeColor=none;fillColor=none;" vertex="1" parent="1">
          <mxGeometry x="430" y="1940" width="70" height="30" as="geometry" />
        </mxCell>
        <mxCell id="83mKQvmwDJsQdVqa1Sk4-186" value="" style="endArrow=oval;html=1;rounded=0;exitX=0.371;exitY=-0.012;exitDx=0;exitDy=0;exitPerimeter=0;endFill=0;" edge="1" parent="1">
          <mxGeometry relative="1" as="geometry">
            <mxPoint x="515" y="2000" as="sourcePoint" />
            <mxPoint x="515" y="1970" as="targetPoint" />
          </mxGeometry>
        </mxCell>
        <mxCell id="83mKQvmwDJsQdVqa1Sk4-187" value="Telefono" style="text;html=1;align=center;verticalAlign=middle;resizable=0;points=[];autosize=1;strokeColor=none;fillColor=none;" vertex="1" parent="1">
          <mxGeometry x="489" y="1940" width="70" height="30" as="geometry" />
        </mxCell>
        <mxCell id="83mKQvmwDJsQdVqa1Sk4-188" value="" style="endArrow=oval;html=1;rounded=0;exitX=0;exitY=1;exitDx=0;exitDy=0;endFill=0;" edge="1" parent="1">
          <mxGeometry relative="1" as="geometry">
            <mxPoint x="281.5" y="2280" as="sourcePoint" />
            <mxPoint x="280.5" y="2310" as="targetPoint" />
          </mxGeometry>
        </mxCell>
        <mxCell id="83mKQvmwDJsQdVqa1Sk4-189" value="" style="endArrow=oval;html=1;rounded=0;exitX=0;exitY=1;exitDx=0;exitDy=0;endFill=0;" edge="1" parent="1">
          <mxGeometry relative="1" as="geometry">
            <mxPoint x="330.5" y="2280" as="sourcePoint" />
            <mxPoint x="329.5" y="2310" as="targetPoint" />
          </mxGeometry>
        </mxCell>
        <mxCell id="83mKQvmwDJsQdVqa1Sk4-190" value="Saldo" style="text;html=1;align=center;verticalAlign=middle;resizable=0;points=[];autosize=1;strokeColor=none;fillColor=none;" vertex="1" parent="1">
          <mxGeometry x="255" y="2308" width="50" height="30" as="geometry" />
        </mxCell>
        <mxCell id="83mKQvmwDJsQdVqa1Sk4-191" value="FechaApertura" style="text;html=1;align=center;verticalAlign=middle;resizable=0;points=[];autosize=1;strokeColor=none;fillColor=none;" vertex="1" parent="1">
          <mxGeometry x="300" y="2308" width="100" height="30" as="geometry" />
        </mxCell>
        <mxCell id="83mKQvmwDJsQdVqa1Sk4-192" value="DEPARTAMENTO" style="whiteSpace=wrap;html=1;align=center;" vertex="1" parent="1">
          <mxGeometry x="-20" y="2840" width="100" height="40" as="geometry" />
        </mxCell>
        <mxCell id="83mKQvmwDJsQdVqa1Sk4-193" value="EMPLEADO" style="whiteSpace=wrap;html=1;align=center;" vertex="1" parent="1">
          <mxGeometry x="280" y="2840" width="100" height="40" as="geometry" />
        </mxCell>
        <mxCell id="83mKQvmwDJsQdVqa1Sk4-194" value="PRODUCTO" style="whiteSpace=wrap;html=1;align=center;" vertex="1" parent="1">
          <mxGeometry x="2" y="3070" width="100" height="40" as="geometry" />
        </mxCell>
        <mxCell id="83mKQvmwDJsQdVqa1Sk4-195" value="PROVEEDOR" style="whiteSpace=wrap;html=1;align=center;" vertex="1" parent="1">
          <mxGeometry x="-320" y="3070" width="100" height="40" as="geometry" />
        </mxCell>
        <mxCell id="83mKQvmwDJsQdVqa1Sk4-196" value="PROYECTO" style="whiteSpace=wrap;html=1;align=center;" vertex="1" parent="1">
          <mxGeometry x="290" y="3070" width="100" height="40" as="geometry" />
        </mxCell>
        <mxCell id="83mKQvmwDJsQdVqa1Sk4-199" value="" style="endArrow=oval;html=1;rounded=0;endFill=1;exitX=0;exitY=0;exitDx=0;exitDy=0;" edge="1" parent="1" source="83mKQvmwDJsQdVqa1Sk4-192">
          <mxGeometry relative="1" as="geometry">
            <mxPoint x="-60" y="2840" as="sourcePoint" />
            <mxPoint x="-50" y="2840" as="targetPoint" />
          </mxGeometry>
        </mxCell>
        <mxCell id="83mKQvmwDJsQdVqa1Sk4-200" value="NumDpto" style="text;html=1;align=center;verticalAlign=middle;resizable=0;points=[];autosize=1;strokeColor=none;fillColor=none;" vertex="1" parent="1">
          <mxGeometry x="-125" y="2828" width="70" height="30" as="geometry" />
        </mxCell>
        <mxCell id="83mKQvmwDJsQdVqa1Sk4-201" value="" style="endArrow=oval;html=1;rounded=0;endFill=0;exitX=0;exitY=0;exitDx=0;exitDy=0;" edge="1" parent="1">
          <mxGeometry relative="1" as="geometry">
            <mxPoint x="-5" y="2879.52" as="sourcePoint" />
            <mxPoint x="-50" y="2879.52" as="targetPoint" />
          </mxGeometry>
        </mxCell>
        <mxCell id="83mKQvmwDJsQdVqa1Sk4-202" value="NomDpto" style="text;html=1;align=center;verticalAlign=middle;resizable=0;points=[];autosize=1;strokeColor=none;fillColor=none;" vertex="1" parent="1">
          <mxGeometry x="-125" y="2858" width="70" height="30" as="geometry" />
        </mxCell>
        <mxCell id="83mKQvmwDJsQdVqa1Sk4-203" value="" style="endArrow=oval;html=1;rounded=0;endFill=1;" edge="1" parent="1">
          <mxGeometry relative="1" as="geometry">
            <mxPoint x="380" y="2840" as="sourcePoint" />
            <mxPoint x="410" y="2840" as="targetPoint" />
          </mxGeometry>
        </mxCell>
        <mxCell id="83mKQvmwDJsQdVqa1Sk4-204" value="Dni" style="text;html=1;align=center;verticalAlign=middle;resizable=0;points=[];autosize=1;strokeColor=none;fillColor=none;" vertex="1" parent="1">
          <mxGeometry x="410" y="2820" width="40" height="30" as="geometry" />
        </mxCell>
        <mxCell id="83mKQvmwDJsQdVqa1Sk4-205" value="" style="endArrow=oval;html=1;rounded=0;endFill=0;" edge="1" parent="1">
          <mxGeometry relative="1" as="geometry">
            <mxPoint x="380" y="2859.76" as="sourcePoint" />
            <mxPoint x="410" y="2859.76" as="targetPoint" />
          </mxGeometry>
        </mxCell>
        <mxCell id="83mKQvmwDJsQdVqa1Sk4-206" value="Nombre" style="text;html=1;align=center;verticalAlign=middle;resizable=0;points=[];autosize=1;strokeColor=none;fillColor=none;" vertex="1" parent="1">
          <mxGeometry x="406" y="2845" width="70" height="30" as="geometry" />
        </mxCell>
        <mxCell id="83mKQvmwDJsQdVqa1Sk4-207" value="" style="endArrow=oval;html=1;rounded=0;endFill=0;" edge="1" parent="1">
          <mxGeometry relative="1" as="geometry">
            <mxPoint x="380" y="2879.5200000000004" as="sourcePoint" />
            <mxPoint x="410" y="2879.5200000000004" as="targetPoint" />
          </mxGeometry>
        </mxCell>
        <mxCell id="83mKQvmwDJsQdVqa1Sk4-208" value="DniConyuge" style="text;html=1;align=center;verticalAlign=middle;resizable=0;points=[];autosize=1;strokeColor=none;fillColor=none;" vertex="1" parent="1">
          <mxGeometry x="404" y="2868" width="90" height="30" as="geometry" />
        </mxCell>
        <mxCell id="83mKQvmwDJsQdVqa1Sk4-210" value="" style="endArrow=oval;html=1;rounded=0;exitX=0;exitY=1;exitDx=0;exitDy=0;endFill=1;" edge="1" parent="1" source="83mKQvmwDJsQdVqa1Sk4-194">
          <mxGeometry relative="1" as="geometry">
            <mxPoint x="2" y="3130" as="sourcePoint" />
            <mxPoint x="2" y="3140" as="targetPoint" />
          </mxGeometry>
        </mxCell>
        <mxCell id="83mKQvmwDJsQdVqa1Sk4-211" value="CodProd" style="text;html=1;align=center;verticalAlign=middle;resizable=0;points=[];autosize=1;strokeColor=none;fillColor=none;" vertex="1" parent="1">
          <mxGeometry x="-43" y="3143" width="70" height="30" as="geometry" />
        </mxCell>
        <mxCell id="83mKQvmwDJsQdVqa1Sk4-212" value="" style="endArrow=oval;html=1;rounded=0;exitX=0;exitY=1;exitDx=0;exitDy=0;endFill=0;" edge="1" parent="1">
          <mxGeometry relative="1" as="geometry">
            <mxPoint x="41.75999999999999" y="3110" as="sourcePoint" />
            <mxPoint x="41.75999999999999" y="3140" as="targetPoint" />
          </mxGeometry>
        </mxCell>
        <mxCell id="83mKQvmwDJsQdVqa1Sk4-213" value="Nombre" style="text;html=1;align=center;verticalAlign=middle;resizable=0;points=[];autosize=1;strokeColor=none;fillColor=none;" vertex="1" parent="1">
          <mxGeometry x="21" y="3143" width="70" height="30" as="geometry" />
        </mxCell>
        <mxCell id="83mKQvmwDJsQdVqa1Sk4-214" value="" style="endArrow=oval;html=1;rounded=0;exitX=0;exitY=1;exitDx=0;exitDy=0;endFill=0;" edge="1" parent="1">
          <mxGeometry relative="1" as="geometry">
            <mxPoint x="101.51999999999998" y="3110" as="sourcePoint" />
            <mxPoint x="101.51999999999998" y="3140" as="targetPoint" />
          </mxGeometry>
        </mxCell>
        <mxCell id="83mKQvmwDJsQdVqa1Sk4-215" value="Precio" style="text;html=1;align=center;verticalAlign=middle;resizable=0;points=[];autosize=1;strokeColor=none;fillColor=none;" vertex="1" parent="1">
          <mxGeometry x="83" y="3143" width="60" height="30" as="geometry" />
        </mxCell>
        <mxCell id="83mKQvmwDJsQdVqa1Sk4-216" value="" style="endArrow=oval;html=1;rounded=0;exitX=0;exitY=1;exitDx=0;exitDy=0;endFill=1;" edge="1" parent="1">
          <mxGeometry relative="1" as="geometry">
            <mxPoint x="291" y="3110" as="sourcePoint" />
            <mxPoint x="291" y="3140" as="targetPoint" />
          </mxGeometry>
        </mxCell>
        <mxCell id="83mKQvmwDJsQdVqa1Sk4-217" value="CodProy" style="text;html=1;align=center;verticalAlign=middle;resizable=0;points=[];autosize=1;strokeColor=none;fillColor=none;" vertex="1" parent="1">
          <mxGeometry x="246" y="3143" width="70" height="30" as="geometry" />
        </mxCell>
        <mxCell id="83mKQvmwDJsQdVqa1Sk4-218" value="" style="endArrow=oval;html=1;rounded=0;exitX=0;exitY=1;exitDx=0;exitDy=0;endFill=0;" edge="1" parent="1">
          <mxGeometry relative="1" as="geometry">
            <mxPoint x="330.76" y="3110" as="sourcePoint" />
            <mxPoint x="330.76" y="3140" as="targetPoint" />
          </mxGeometry>
        </mxCell>
        <mxCell id="83mKQvmwDJsQdVqa1Sk4-219" value="Nombre" style="text;html=1;align=center;verticalAlign=middle;resizable=0;points=[];autosize=1;strokeColor=none;fillColor=none;" vertex="1" parent="1">
          <mxGeometry x="310" y="3143" width="70" height="30" as="geometry" />
        </mxCell>
        <mxCell id="83mKQvmwDJsQdVqa1Sk4-220" value="" style="endArrow=oval;html=1;rounded=0;exitX=0;exitY=1;exitDx=0;exitDy=0;endFill=1;" edge="1" parent="1">
          <mxGeometry relative="1" as="geometry">
            <mxPoint x="-320.03" y="3110" as="sourcePoint" />
            <mxPoint x="-320.03" y="3140" as="targetPoint" />
          </mxGeometry>
        </mxCell>
        <mxCell id="83mKQvmwDJsQdVqa1Sk4-221" value="CodProv" style="text;html=1;align=center;verticalAlign=middle;resizable=0;points=[];autosize=1;strokeColor=none;fillColor=none;" vertex="1" parent="1">
          <mxGeometry x="-365.03" y="3143" width="70" height="30" as="geometry" />
        </mxCell>
        <mxCell id="83mKQvmwDJsQdVqa1Sk4-222" value="" style="endArrow=oval;html=1;rounded=0;exitX=0;exitY=1;exitDx=0;exitDy=0;endFill=0;" edge="1" parent="1">
          <mxGeometry relative="1" as="geometry">
            <mxPoint x="-280.27" y="3110" as="sourcePoint" />
            <mxPoint x="-280.27" y="3140" as="targetPoint" />
          </mxGeometry>
        </mxCell>
        <mxCell id="83mKQvmwDJsQdVqa1Sk4-223" value="Nombre" style="text;html=1;align=center;verticalAlign=middle;resizable=0;points=[];autosize=1;strokeColor=none;fillColor=none;" vertex="1" parent="1">
          <mxGeometry x="-301.03" y="3143" width="70" height="30" as="geometry" />
        </mxCell>
        <mxCell id="83mKQvmwDJsQdVqa1Sk4-224" value="" style="endArrow=oval;html=1;rounded=0;exitX=0;exitY=1;exitDx=0;exitDy=0;endFill=0;" edge="1" parent="1">
          <mxGeometry relative="1" as="geometry">
            <mxPoint x="-220.51000000000002" y="3110" as="sourcePoint" />
            <mxPoint x="-220.51000000000002" y="3140" as="targetPoint" />
          </mxGeometry>
        </mxCell>
        <mxCell id="83mKQvmwDJsQdVqa1Sk4-225" value="Telefono" style="text;html=1;align=center;verticalAlign=middle;resizable=0;points=[];autosize=1;strokeColor=none;fillColor=none;" vertex="1" parent="1">
          <mxGeometry x="-244.03" y="3143" width="70" height="30" as="geometry" />
        </mxCell>
        <mxCell id="83mKQvmwDJsQdVqa1Sk4-226" value="" style="endArrow=oval;html=1;rounded=0;exitX=0;exitY=1;exitDx=0;exitDy=0;endFill=0;" edge="1" parent="1" source="83mKQvmwDJsQdVqa1Sk4-195">
          <mxGeometry relative="1" as="geometry">
            <mxPoint x="-210.51000000000002" y="3120" as="sourcePoint" />
            <mxPoint x="-360" y="3110" as="targetPoint" />
          </mxGeometry>
        </mxCell>
        <mxCell id="83mKQvmwDJsQdVqa1Sk4-227" value="Direccion" style="text;html=1;align=center;verticalAlign=middle;resizable=0;points=[];autosize=1;strokeColor=none;fillColor=none;" vertex="1" parent="1">
          <mxGeometry x="-429.03" y="3090" width="70" height="30" as="geometry" />
        </mxCell>
        <mxCell id="83mKQvmwDJsQdVqa1Sk4-228" value="proporcionar" style="shape=rhombus;perimeter=rhombusPerimeter;whiteSpace=wrap;html=1;align=center;" vertex="1" parent="1">
          <mxGeometry x="-180" y="3060" width="120" height="60" as="geometry" />
        </mxCell>
        <mxCell id="83mKQvmwDJsQdVqa1Sk4-229" value="usar" style="shape=rhombus;perimeter=rhombusPerimeter;whiteSpace=wrap;html=1;align=center;" vertex="1" parent="1">
          <mxGeometry x="131" y="3060" width="120" height="60" as="geometry" />
        </mxCell>
        <mxCell id="83mKQvmwDJsQdVqa1Sk4-230" value="trabajar" style="shape=rhombus;perimeter=rhombusPerimeter;whiteSpace=wrap;html=1;align=center;" vertex="1" parent="1">
          <mxGeometry x="205" y="2940" width="120" height="60" as="geometry" />
        </mxCell>
        <mxCell id="83mKQvmwDJsQdVqa1Sk4-231" value="trabajar" style="shape=rhombus;perimeter=rhombusPerimeter;whiteSpace=wrap;html=1;align=center;" vertex="1" parent="1">
          <mxGeometry x="122" y="2830" width="120" height="60" as="geometry" />
        </mxCell>
        <mxCell id="83mKQvmwDJsQdVqa1Sk4-232" value="tener" style="shape=rhombus;perimeter=rhombusPerimeter;whiteSpace=wrap;html=1;align=center;" vertex="1" parent="1">
          <mxGeometry x="-60" y="2950" width="120" height="60" as="geometry" />
        </mxCell>
        <mxCell id="83mKQvmwDJsQdVqa1Sk4-233" value="" style="endArrow=none;html=1;rounded=0;exitX=0.5;exitY=1;exitDx=0;exitDy=0;entryX=0;entryY=0;entryDx=0;entryDy=0;" edge="1" parent="1" source="83mKQvmwDJsQdVqa1Sk4-232" target="83mKQvmwDJsQdVqa1Sk4-194">
          <mxGeometry relative="1" as="geometry">
            <mxPoint x="80" y="3030" as="sourcePoint" />
            <mxPoint x="240" y="3030" as="targetPoint" />
          </mxGeometry>
        </mxCell>
        <mxCell id="83mKQvmwDJsQdVqa1Sk4-234" value="" style="endArrow=none;html=1;rounded=0;" edge="1" parent="1" source="83mKQvmwDJsQdVqa1Sk4-232">
          <mxGeometry relative="1" as="geometry">
            <mxPoint x="95" y="2980" as="sourcePoint" />
            <mxPoint x="102" y="2980" as="targetPoint" />
          </mxGeometry>
        </mxCell>
        <mxCell id="83mKQvmwDJsQdVqa1Sk4-235" value="" style="endArrow=none;html=1;rounded=0;entryX=1;entryY=0;entryDx=0;entryDy=0;" edge="1" parent="1" target="83mKQvmwDJsQdVqa1Sk4-194">
          <mxGeometry relative="1" as="geometry">
            <mxPoint x="102" y="2980" as="sourcePoint" />
            <mxPoint x="290" y="3010" as="targetPoint" />
          </mxGeometry>
        </mxCell>
        <mxCell id="83mKQvmwDJsQdVqa1Sk4-236" value="" style="endArrow=none;html=1;rounded=0;exitX=1;exitY=0.5;exitDx=0;exitDy=0;entryX=0;entryY=0.5;entryDx=0;entryDy=0;" edge="1" parent="1" source="83mKQvmwDJsQdVqa1Sk4-195" target="83mKQvmwDJsQdVqa1Sk4-228">
          <mxGeometry relative="1" as="geometry">
            <mxPoint x="-150" y="3190" as="sourcePoint" />
            <mxPoint x="10" y="3190" as="targetPoint" />
          </mxGeometry>
        </mxCell>
        <mxCell id="83mKQvmwDJsQdVqa1Sk4-237" value="" style="endArrow=none;html=1;rounded=0;exitX=1;exitY=0.5;exitDx=0;exitDy=0;entryX=0;entryY=0.5;entryDx=0;entryDy=0;" edge="1" parent="1" source="83mKQvmwDJsQdVqa1Sk4-228" target="83mKQvmwDJsQdVqa1Sk4-194">
          <mxGeometry relative="1" as="geometry">
            <mxPoint x="-120" y="3170" as="sourcePoint" />
            <mxPoint x="40" y="3170" as="targetPoint" />
          </mxGeometry>
        </mxCell>
        <mxCell id="83mKQvmwDJsQdVqa1Sk4-238" value="" style="endArrow=none;html=1;rounded=0;exitX=1;exitY=0.5;exitDx=0;exitDy=0;entryX=0;entryY=0.5;entryDx=0;entryDy=0;" edge="1" parent="1" source="83mKQvmwDJsQdVqa1Sk4-194" target="83mKQvmwDJsQdVqa1Sk4-229">
          <mxGeometry relative="1" as="geometry">
            <mxPoint x="190" y="3170" as="sourcePoint" />
            <mxPoint x="350" y="3170" as="targetPoint" />
          </mxGeometry>
        </mxCell>
        <mxCell id="83mKQvmwDJsQdVqa1Sk4-239" value="" style="endArrow=none;html=1;rounded=0;exitX=1;exitY=0.5;exitDx=0;exitDy=0;entryX=0;entryY=0.5;entryDx=0;entryDy=0;" edge="1" parent="1" source="83mKQvmwDJsQdVqa1Sk4-229" target="83mKQvmwDJsQdVqa1Sk4-196">
          <mxGeometry relative="1" as="geometry">
            <mxPoint x="210" y="3170" as="sourcePoint" />
            <mxPoint x="370" y="3170" as="targetPoint" />
          </mxGeometry>
        </mxCell>
        <mxCell id="83mKQvmwDJsQdVqa1Sk4-240" value="" style="endArrow=none;html=1;rounded=0;exitX=0.5;exitY=1;exitDx=0;exitDy=0;entryX=0.407;entryY=0.017;entryDx=0;entryDy=0;entryPerimeter=0;" edge="1" parent="1" source="83mKQvmwDJsQdVqa1Sk4-230" target="83mKQvmwDJsQdVqa1Sk4-196">
          <mxGeometry relative="1" as="geometry">
            <mxPoint x="330" y="3030" as="sourcePoint" />
            <mxPoint x="490" y="3030" as="targetPoint" />
          </mxGeometry>
        </mxCell>
        <mxCell id="83mKQvmwDJsQdVqa1Sk4-241" value="" style="endArrow=none;html=1;rounded=0;exitX=1;exitY=0.5;exitDx=0;exitDy=0;entryX=0;entryY=0.5;entryDx=0;entryDy=0;" edge="1" parent="1" source="83mKQvmwDJsQdVqa1Sk4-192" target="83mKQvmwDJsQdVqa1Sk4-231">
          <mxGeometry relative="1" as="geometry">
            <mxPoint x="240" y="2920" as="sourcePoint" />
            <mxPoint x="400" y="2920" as="targetPoint" />
          </mxGeometry>
        </mxCell>
        <mxCell id="83mKQvmwDJsQdVqa1Sk4-242" value="" style="endArrow=none;html=1;rounded=0;exitX=1;exitY=0.5;exitDx=0;exitDy=0;entryX=0;entryY=0.5;entryDx=0;entryDy=0;" edge="1" parent="1" source="83mKQvmwDJsQdVqa1Sk4-231" target="83mKQvmwDJsQdVqa1Sk4-193">
          <mxGeometry relative="1" as="geometry">
            <mxPoint x="230" y="2910" as="sourcePoint" />
            <mxPoint x="390" y="2910" as="targetPoint" />
          </mxGeometry>
        </mxCell>
        <mxCell id="83mKQvmwDJsQdVqa1Sk4-243" value="" style="endArrow=none;html=1;rounded=0;exitX=0.5;exitY=1;exitDx=0;exitDy=0;entryX=0.5;entryY=0;entryDx=0;entryDy=0;" edge="1" parent="1" source="83mKQvmwDJsQdVqa1Sk4-193" target="83mKQvmwDJsQdVqa1Sk4-230">
          <mxGeometry relative="1" as="geometry">
            <mxPoint x="220" y="2980" as="sourcePoint" />
            <mxPoint x="380" y="2980" as="targetPoint" />
          </mxGeometry>
        </mxCell>
        <mxCell id="83mKQvmwDJsQdVqa1Sk4-244" value="(0, n)" style="text;html=1;align=center;verticalAlign=middle;resizable=0;points=[];autosize=1;strokeColor=none;fillColor=none;" vertex="1" parent="1">
          <mxGeometry x="-5" y="3038" width="50" height="30" as="geometry" />
        </mxCell>
        <mxCell id="83mKQvmwDJsQdVqa1Sk4-245" value="(0, n)" style="text;html=1;align=center;verticalAlign=middle;resizable=0;points=[];autosize=1;strokeColor=none;fillColor=none;" vertex="1" parent="1">
          <mxGeometry x="-55" y="3088" width="50" height="30" as="geometry" />
        </mxCell>
        <mxCell id="83mKQvmwDJsQdVqa1Sk4-246" value="N:M" style="text;html=1;align=center;verticalAlign=middle;resizable=0;points=[];autosize=1;strokeColor=none;fillColor=none;" vertex="1" parent="1">
          <mxGeometry x="-25" y="2918" width="50" height="30" as="geometry" />
        </mxCell>
        <mxCell id="83mKQvmwDJsQdVqa1Sk4-247" value="(0, n)" style="text;html=1;align=center;verticalAlign=middle;resizable=0;points=[];autosize=1;strokeColor=none;fillColor=none;" vertex="1" parent="1">
          <mxGeometry x="60" y="3040" width="50" height="30" as="geometry" />
        </mxCell>
        <mxCell id="83mKQvmwDJsQdVqa1Sk4-248" value="(0, n)" style="text;html=1;align=center;verticalAlign=middle;resizable=0;points=[];autosize=1;strokeColor=none;fillColor=none;" vertex="1" parent="1">
          <mxGeometry x="-224.03" y="3090" width="50" height="30" as="geometry" />
        </mxCell>
        <mxCell id="83mKQvmwDJsQdVqa1Sk4-249" value="N:M" style="text;html=1;align=center;verticalAlign=middle;resizable=0;points=[];autosize=1;strokeColor=none;fillColor=none;" vertex="1" parent="1">
          <mxGeometry x="-145" y="3038" width="50" height="30" as="geometry" />
        </mxCell>
        <mxCell id="83mKQvmwDJsQdVqa1Sk4-250" value="(1, n)" style="text;html=1;align=center;verticalAlign=middle;resizable=0;points=[];autosize=1;strokeColor=none;fillColor=none;" vertex="1" parent="1">
          <mxGeometry x="93" y="3088" width="50" height="30" as="geometry" />
        </mxCell>
        <mxCell id="83mKQvmwDJsQdVqa1Sk4-251" value="(1, n)" style="text;html=1;align=center;verticalAlign=middle;resizable=0;points=[];autosize=1;strokeColor=none;fillColor=none;" vertex="1" parent="1">
          <mxGeometry x="245" y="3088" width="50" height="30" as="geometry" />
        </mxCell>
        <mxCell id="83mKQvmwDJsQdVqa1Sk4-252" value="N:M" style="text;html=1;align=center;verticalAlign=middle;resizable=0;points=[];autosize=1;strokeColor=none;fillColor=none;" vertex="1" parent="1">
          <mxGeometry x="166" y="3030" width="50" height="30" as="geometry" />
        </mxCell>
        <mxCell id="83mKQvmwDJsQdVqa1Sk4-253" value="(1, n)" style="text;html=1;align=center;verticalAlign=middle;resizable=0;points=[];autosize=1;strokeColor=none;fillColor=none;" vertex="1" parent="1">
          <mxGeometry x="266" y="3040" width="50" height="30" as="geometry" />
        </mxCell>
        <mxCell id="83mKQvmwDJsQdVqa1Sk4-254" value="dirigir" style="shape=rhombus;perimeter=rhombusPerimeter;whiteSpace=wrap;html=1;align=center;" vertex="1" parent="1">
          <mxGeometry x="353" y="2940" width="120" height="60" as="geometry" />
        </mxCell>
        <mxCell id="83mKQvmwDJsQdVqa1Sk4-255" value="" style="endArrow=none;html=1;rounded=0;exitX=0.5;exitY=1;exitDx=0;exitDy=0;entryX=0.427;entryY=-0.041;entryDx=0;entryDy=0;entryPerimeter=0;" edge="1" parent="1" source="83mKQvmwDJsQdVqa1Sk4-254" target="83mKQvmwDJsQdVqa1Sk4-196">
          <mxGeometry relative="1" as="geometry">
            <mxPoint x="275" y="3010" as="sourcePoint" />
            <mxPoint x="341" y="3081" as="targetPoint" />
          </mxGeometry>
        </mxCell>
        <mxCell id="83mKQvmwDJsQdVqa1Sk4-256" value="" style="endArrow=none;html=1;rounded=0;exitX=0.5;exitY=0;exitDx=0;exitDy=0;" edge="1" parent="1" source="83mKQvmwDJsQdVqa1Sk4-254">
          <mxGeometry relative="1" as="geometry">
            <mxPoint x="423" y="3010" as="sourcePoint" />
            <mxPoint x="330" y="2880" as="targetPoint" />
          </mxGeometry>
        </mxCell>
        <mxCell id="83mKQvmwDJsQdVqa1Sk4-257" value="(1, 1)" style="text;html=1;align=center;verticalAlign=middle;resizable=0;points=[];autosize=1;strokeColor=none;fillColor=none;" vertex="1" parent="1">
          <mxGeometry x="363" y="2888" width="50" height="30" as="geometry" />
        </mxCell>
        <mxCell id="83mKQvmwDJsQdVqa1Sk4-258" value="(1, n)" style="text;html=1;align=center;verticalAlign=middle;resizable=0;points=[];autosize=1;strokeColor=none;fillColor=none;" vertex="1" parent="1">
          <mxGeometry x="355" y="3038" width="50" height="30" as="geometry" />
        </mxCell>
        <mxCell id="83mKQvmwDJsQdVqa1Sk4-259" value="1:N" style="text;html=1;align=center;verticalAlign=middle;resizable=0;points=[];autosize=1;strokeColor=none;fillColor=none;" vertex="1" parent="1">
          <mxGeometry x="470" y="2958" width="40" height="30" as="geometry" />
        </mxCell>
        <mxCell id="83mKQvmwDJsQdVqa1Sk4-260" value="(0, n)" style="text;html=1;align=center;verticalAlign=middle;resizable=0;points=[];autosize=1;strokeColor=none;fillColor=none;" vertex="1" parent="1">
          <mxGeometry x="245" y="2878" width="50" height="30" as="geometry" />
        </mxCell>
        <mxCell id="83mKQvmwDJsQdVqa1Sk4-261" value="N:M" style="text;html=1;align=center;verticalAlign=middle;resizable=0;points=[];autosize=1;strokeColor=none;fillColor=none;" vertex="1" parent="1">
          <mxGeometry x="155" y="2958" width="50" height="30" as="geometry" />
        </mxCell>
        <mxCell id="83mKQvmwDJsQdVqa1Sk4-262" value="(1, 1)" style="text;html=1;align=center;verticalAlign=middle;resizable=0;points=[];autosize=1;strokeColor=none;fillColor=none;" vertex="1" parent="1">
          <mxGeometry x="72" y="2838" width="50" height="30" as="geometry" />
        </mxCell>
        <mxCell id="83mKQvmwDJsQdVqa1Sk4-263" value="(1, n)" style="text;html=1;align=center;verticalAlign=middle;resizable=0;points=[];autosize=1;strokeColor=none;fillColor=none;" vertex="1" parent="1">
          <mxGeometry x="235" y="2830" width="50" height="30" as="geometry" />
        </mxCell>
        <mxCell id="83mKQvmwDJsQdVqa1Sk4-264" value="1:N" style="text;html=1;align=center;verticalAlign=middle;resizable=0;points=[];autosize=1;strokeColor=none;fillColor=none;" vertex="1" parent="1">
          <mxGeometry x="161" y="2798" width="40" height="30" as="geometry" />
        </mxCell>
      </root>
    </mxGraphModel>
  </diagram>
</mxfile>
